<svg width="40" height="50" viewBox="0 0 40 50" fill="none" xmlns="http://www.w3.org/2000/svg">
<path d="M20 50C18.6736 49.9935 17.403 49.4654 16.4628 48.5298C15.5225 47.5943 14.9881 46.3263 14.975 45H24.975C24.9803 45.6684 24.8528 46.3312 24.6 46.95C24.2767 47.6919 23.7817 48.3462 23.1558 48.8591C22.5298 49.3721 21.7909 49.7288 21 49.9H20.8825C20.5921 49.9605 20.2966 49.994 20 50ZM40 42.5H0V37.5L5 35V21.25C4.86829 17.7228 5.66484 14.2228 7.31 11.1C8.11959 9.66817 9.22358 8.42427 10.5491 7.45037C11.8747 6.47646 13.3917 5.79468 15 5.45V0H25V5.45C31.4475 6.985 35 12.595 35 21.25V35L40 37.5V42.5Z" fill="white"/>
</svg>
