<svg width="42" height="50" viewBox="0 0 42 50" fill="none" xmlns="http://www.w3.org/2000/svg">
<path d="M35.4167 29.1667C38.1375 29.1667 40.4542 30.9062 41.3125 33.3333H20.8333V32.2917H6.25C5.47349 32.2917 4.72478 32.5807 4.14978 33.1026C3.57477 33.6245 3.21465 34.3417 3.13958 35.1146L3.125 35.4167V36.9062C3.125 42.4771 10.1854 46.875 20.8333 46.875V45.8333H36.3979C32.6688 48.4229 27.2104 50 20.8333 50C8.77083 50 0 44.6521 0 36.9062V35.4167C0 33.7591 0.658481 32.1693 1.83058 30.9972C3.00269 29.8251 4.5924 29.1667 6.25 29.1667H35.4167ZM41.6667 35.4167V36.9062C41.6667 37.4625 41.6188 38.0083 41.5208 38.5417H20.8333V35.4167H41.6667ZM40.8938 40.625H20.8333V43.75H38.8208C39.7104 42.7896 40.4104 41.7417 40.8938 40.625ZM33.2375 10.9375C33.3668 11.9752 33.3668 13.0248 33.2375 14.0625H20.8333V10.9375H33.2375ZM32.7938 8.85417C32.457 7.75021 31.9683 6.69846 31.3417 5.72917H20.8333V8.85417H32.7917H32.7938ZM20.8333 1.25263e-08C24.2771 1.25263e-08 27.3958 1.39375 29.6563 3.64583H20.8333V3.125C18.3469 3.125 15.9624 4.11272 14.2042 5.87087C12.4461 7.62903 11.4583 10.0136 11.4583 12.5C11.4583 14.9864 12.4461 17.371 14.2042 19.1291C15.9624 20.8873 18.3469 21.875 20.8333 21.875V21.3542H29.6563C28.2008 22.8046 26.4103 23.8738 24.4431 24.4673C22.4759 25.0607 20.3928 25.1601 18.378 24.7566C16.3633 24.3531 14.4791 23.4591 12.8922 22.1539C11.3053 20.8486 10.0647 19.1723 9.28002 17.2733C8.4954 15.3742 8.19101 13.311 8.3938 11.2663C8.59659 9.22163 9.3003 7.25843 10.4427 5.55051C11.585 3.84259 13.1308 2.44261 14.9431 1.47447C16.7555 0.50634 18.7786 -9.19648e-05 20.8333 1.25263e-08V1.25263e-08ZM31.3417 19.2708H20.8333V16.1458H32.7917C32.4575 17.2504 31.9694 18.3025 31.3417 19.2708V19.2708Z" fill="white"/>
</svg>
