<svg width="60" height="50" viewBox="0 0 60 50" fill="none" xmlns="http://www.w3.org/2000/svg">
<path d="M6.875 0C5.05164 0 3.30295 0.724328 2.01364 2.01364C0.724328 3.30295 0 5.05164 0 6.875V43.125C0 44.9484 0.724328 46.697 2.01364 47.9864C3.30295 49.2757 5.05164 50 6.875 50H53.115C54.9384 50 56.687 49.2757 57.9764 47.9864C59.2657 46.697 59.99 44.9484 59.99 43.125V6.875C59.99 5.05164 59.2657 3.30295 57.9764 2.01364C56.687 0.724328 54.9384 0 53.115 0H6.8775H6.875ZM32.49 19.375C32.49 18.8777 32.6875 18.4008 33.0392 18.0492C33.3908 17.6975 33.8677 17.5 34.365 17.5H48.115C48.6123 17.5 49.0892 17.6975 49.4408 18.0492C49.7925 18.4008 49.99 18.8777 49.99 19.375C49.99 19.8723 49.7925 20.3492 49.4408 20.7008C49.0892 21.0525 48.6123 21.25 48.115 21.25H34.365C33.8677 21.25 33.3908 21.0525 33.0392 20.7008C32.6875 20.3492 32.49 19.8723 32.49 19.375ZM34.365 27.5H48.115C48.6123 27.5 49.0892 27.6975 49.4408 28.0492C49.7925 28.4008 49.99 28.8777 49.99 29.375C49.99 29.8723 49.7925 30.3492 49.4408 30.7008C49.0892 31.0525 48.6123 31.25 48.115 31.25H34.365C33.8677 31.25 33.3908 31.0525 33.0392 30.7008C32.6875 30.3492 32.49 29.8723 32.49 29.375C32.49 28.8777 32.6875 28.4008 33.0392 28.0492C33.3908 27.6975 33.8677 27.5 34.365 27.5ZM23.115 19.375C23.115 20.5353 22.6541 21.6481 21.8336 22.4686C21.0131 23.2891 19.9003 23.75 18.74 23.75C17.5797 23.75 16.4669 23.2891 15.6464 22.4686C14.8259 21.6481 14.365 20.5353 14.365 19.375C14.365 18.2147 14.8259 17.1019 15.6464 16.2814C16.4669 15.4609 17.5797 15 18.74 15C19.9003 15 21.0131 15.4609 21.8336 16.2814C22.6541 17.1019 23.115 18.2147 23.115 19.375ZM12.49 26.25H24.99C25.653 26.25 26.2889 26.5134 26.7578 26.9822C27.2266 27.4511 27.49 28.087 27.49 28.75V30C27.49 30 26.24 36.25 18.74 36.25C11.24 36.25 9.99 30 9.99 30V28.75C9.99 28.087 10.2534 27.4511 10.7222 26.9822C11.1911 26.5134 11.827 26.25 12.49 26.25Z" fill="white"/>
</svg>
