<svg width="53" height="50" viewBox="0 0 53 50" fill="none" xmlns="http://www.w3.org/2000/svg">
<path d="M50.9616 24.5986L28.7815 2.04686L27.2948 0.534452C26.9561 0.192127 26.498 0 26.0205 0C25.543 0 25.0849 0.192127 24.7462 0.534452L1.07939 24.5986C0.73229 24.9503 0.457969 25.3692 0.272622 25.8306C0.0872749 26.2919 -0.00534198 26.7864 0.000237929 27.2847C0.0231987 29.3402 1.70507 30.9811 3.72562 30.9811H6.1652V50H45.8758V30.9811H48.3671C49.3486 30.9811 50.2728 30.5898 50.9674 29.8833C51.3094 29.5365 51.5803 29.1241 51.7646 28.67C51.9489 28.216 52.0427 27.7292 52.0408 27.238C52.0408 26.2453 51.6562 25.3052 50.9616 24.5986ZM29.235 45.7956H22.806V33.8833H29.235V45.7956ZM41.7429 26.7767V45.7956H32.9087V32.4818C32.9087 31.1913 31.8812 30.146 30.6127 30.146H21.4284C20.1598 30.146 19.1323 31.1913 19.1323 32.4818V45.7956H10.2981V26.7767H4.78756L26.0263 5.18845L27.3522 6.53735L47.2592 26.7767H41.7429Z" fill="white"/>
</svg>
